<?xml version="1.0" encoding="UTF-8"?>
<svg
  version="1.1"
  width="2048"
  height="2048"
  viewBox="0 0 2048 2048"
  xmlns="http://www.w3.org/2000/svg"
  aria-labelledby="title"
>
  <title id="title">Rhetorica — Column Icon</title>
  <desc>Classical column icon adapted from column_logo.svg reference, gold fill for brand consistency with rhetorica_logo_full.jpg</desc>
  <g id="column">
    <!-- 
      Gold fill below is an approximation. 
      For exact brand gold, eyedropper the value from rhetorica_icon_column_adapted.jpg 
      (or rhetorica_logo_full.jpg) and replace the fill here.
    -->
    <path
      fill="#C9A66B"
      d="m 964,1656.8738 c -12.31357,-1.2466 -32.71955,-3.8777 -38.38649,-4.9496 -2.68757,-0.5083 -4.9988,-0.9242 -5.13606,-0.9242 -0.13726,0 -0.97238,-1.5232 -1.85582,-3.3849 -1.46174,-3.0804 -1.60729,-26.111 -1.61773,-255.9762 -0.0104,-229.5958 -0.15813,-253.0259 -1.62242,-257.3651 C 910.62938,1120.1917 902.63581,1113 891.73562,1113 c -7.14381,0 -13.45144,3.9537 -18.23315,11.4287 -6.99976,10.9424 -6.50247,-9.0991 -6.50247,262.0589 0,219.82 -0.15982,245.2956 -1.55128,247.2822 -2.89207,4.129 -4.77529,4.4447 -13.39022,2.2451 -13.99546,-3.5733 -44.86096,-14.072 -46.23376,-15.726 -1.08855,-1.3115 -1.41389,-44.7604 -1.82474,-243.6925 l -0.5,-242.0964 -2.70349,-7.4044 c -6.1224,-16.7682 -14.99196,-18.6519 -21.78182,-4.6259 -5.18294,10.7065 -4.97864,0.6027 -4.99733,247.1454 L 774,1598.7303 l -2.07258,2.6348 c -3.59875,4.5751 -6.87216,3.7256 -29.7395,-7.7182 -50.3199,-25.1821 -91.54327,-52.5734 -134.68792,-89.4949 -13.21889,-11.3122 -52.92463,-51.0372 -63.62113,-63.652 -38.18954,-45.0383 -63.37189,-82.7879 -87.72219,-131.5 -30.56323,-61.1408 -48.91814,-117.8565 -59.62527,-184.2388 -6.1856,-38.3496 -7.91865,-65.063 -7.23968,-111.593 C 389.95188,967.92721 392.41414,942.9024 400.13149,903 421.65611,791.70729 473.53313,686.66106 548.59623,602.37242 563.24454,585.92377 593.67435,556.0634 610.47177,541.65476 702.43846,462.76676 814.7818,411.84975 934,395.02308 c 34.10249,-4.81329 45.67705,-5.51577 90.5,-5.49261 47.2767,0.0244 63.6975,1.22427 102.1089,7.46094 115.1552,18.69713 222.0513,68.43334 310.9193,144.66335 16.7974,14.40864 47.2273,44.26901 61.8756,60.71766 75.0631,84.28864 126.9401,189.33487 148.4647,300.62758 7.7174,39.9024 10.1796,64.92721 10.8398,110.1682 0.6781,46.4729 -1.0258,72.7532 -7.2183,111.3318 -10.687,66.5787 -28.9701,123.1324 -59.6467,184.5 -24.3503,48.7121 -49.5326,86.4617 -87.7222,131.5 -10.6965,12.6148 -50.4022,52.3398 -63.6211,63.652 -43.1447,36.9215 -84.368,64.3128 -134.6879,89.4949 -22.8674,11.4438 -26.1408,12.2933 -29.7395,7.7182 l -2.0726,-2.6348 -0.017,-229.1152 c -0.019,-246.5427 0.1857,-236.4389 -4.9973,-247.1454 -6.7898,-14.026 -15.6594,-12.1423 -21.7818,4.6259 l -2.7035,7.4044 -0.5,242.0964 c -0.4109,198.9322 -0.7362,242.381 -1.8247,243.6925 -1.3729,1.6541 -32.2385,12.1527 -46.2338,15.726 -8.6149,2.1996 -10.4982,1.8839 -13.3902,-2.2451 -1.3915,-1.9866 -1.5513,-27.4622 -1.5513,-247.2822 0,-271.158 0.4973,-251.1165 -6.5025,-262.0589 -8.8035,-13.7621 -24.2406,-15.4579 -34.4865,-3.7884 -3.5134,4.0014 -6.8097,10.6225 -8.1449,16.3597 -0.448,1.925 -0.8296,116.8393 -0.848,255.3651 -0.031,229.1687 -0.1782,252.1701 -1.6397,255.25 -0.8835,1.8617 -1.7186,3.3849 -1.8559,3.3849 -0.1372,0 -2.4484,0.4159 -5.136,0.9242 -10.6886,2.0217 -47.0491,6.0758 -54.4925,6.0758 -2.5607,0 -4.5788,-0.6848 -5.894,-2 -1.9895,-1.9895 -2,-3.3333 -2,-255.4508 0,-183.9841 -0.3084,-254.9032 -1.1254,-258.75 -2.4713,-11.637 -8.1987,-19.529 -18.0486,-24.8694 -6.0626,-3.287 -6.7632,-3.4298 -16.826,-3.4298 -10.0628,0 -10.7634,0.1428 -16.826,3.4298 -9.84987,5.3404 -15.57735,13.2324 -18.04864,24.8694 C 988.30845,1145.646 988,1216.5551 988,1400.5103 v 253.4118 l -2.18856,2.0389 c -2.43932,2.2726 -6.64152,2.4485 -21.81144,0.9128 z m 9.00755,-262.6238 c 0.005,-165.0279 0.35139,-249.9203 1.03731,-254.25 0.56637,-3.575 2.52558,-9.65 4.3538,-13.5 17.92363,-37.7449 71.92044,-38.4122 90.78564,-1.122 6.124,12.1051 5.7794,-3.8178 5.7983,267.872 L 1075,1642 l 3.75,-10e-5 c 2.0625,-10e-5 10.725,-0.8929 19.25,-1.9839 8.525,-1.0911 15.8306,-1.991 16.2346,-1.9999 0.404,-0.01 0.8736,-112.4036 1.0436,-249.7661 0.2498,-201.9452 0.5598,-250.7071 1.6193,-254.75 3.4961,-13.3405 13.5471,-27.1579 23.3795,-32.1403 18.1859,-9.2155 39.3464,-0.9157 49.6365,19.469 6.4742,12.8253 6.0555,-5.0319 6.0717,258.9213 0.01,147.6983 0.3736,240.25 0.9462,240.25 0.5123,0 7.9327,-2.2669 16.4899,-5.0375 l 15.5584,-5.0376 0.2601,-238.7124 c 0.2446,-224.4378 0.3653,-239.0611 2.0181,-244.5415 6.2592,-20.7553 18.8685,-31.9342 32.2265,-28.5706 7.6983,1.9384 13.7548,7.5529 18.4731,17.1249 7.5312,15.2784 7.0425,-1.8525 7.0425,246.8627 0,122.6016 0.236,222.912 0.5244,222.912 0.2884,0 7.469,-3.5956 15.9568,-7.9903 94.4182,-48.8858 172.1605,-117.2933 230.7122,-203.0097 56.3684,-82.5201 91.1027,-174.6179 103.7153,-275 5.3321,-42.437 5.5322,-98.9418 0.5117,-144.5 -10.7276,-97.34861 -45.0889,-191.52507 -100.0315,-274.16363 -16.8481,-25.34099 -41.3246,-56.46848 -60.0572,-76.37642 -4.3783,-4.65297 -9.9191,-10.61673 -12.3129,-13.2528 -6.6061,-7.27446 -34.9474,-33.20539 -49.0261,-44.8565 C 1345.2265,484.80388 1257.8649,441.49823 1165,419.94506 1095.8415,403.89395 1022.709,399.82068 951.5,408.05374 833.36001,421.71286 720.9933,469.72569 629.00727,545.85065 c -14.07869,11.65111 -42.41996,37.58204 -49.02603,44.8565 -2.39386,2.63607 -7.93468,8.59983 -12.31295,13.2528 -36.20512,38.47676 -71.76958,89.77694 -97.08443,140.04005 -38.52141,76.48499 -59.2994,152.07139 -65.56139,238.5 -2.26283,31.2318 -0.8352,85.4286 3.0688,116.5 12.61259,100.3821 47.34698,192.4799 103.71533,275 58.55168,85.7164 136.29397,154.1239 230.71221,203.0097 8.48782,4.3947 15.66838,7.9903 15.9568,7.9903 0.28841,0 0.52439,-100.3104 0.52439,-222.912 0,-248.7152 -0.48871,-231.5843 7.04251,-246.8627 3.10331,-6.2956 5.23902,-9.1918 8.92956,-12.109 16.18339,-12.7922 33.80568,-2.8548 41.77005,23.5547 1.65276,5.4804 1.77344,20.1037 2.01804,244.5415 l 0.26015,238.7124 15.55842,5.0376 c 8.55712,2.7706 15.97755,5.0375 16.48984,5.0375 0.57261,0 0.93712,-92.5517 0.94621,-240.25 0.0162,-263.9532 -0.40251,-246.096 6.07169,-258.9213 10.29018,-20.3847 31.45066,-28.6845 49.63657,-19.469 9.83233,4.9824 19.88339,18.7998 23.37945,32.1403 1.0595,4.0429 1.36946,52.787 1.61932,254.6489 l 0.309,249.6489 8.23459,1.1094 c 4.52903,0.6102 11.1596,1.5002 14.7346,1.9777 3.575,0.4775 8.8625,0.9238 11.75,0.9917 L 973,1642 Z M 626.92173,1158.4482 C 581.44521,1150.213 543.28245,1116.7852 529.37015,1073 518.75769,1039.6002 522.2614,1001.1308 539.0709,966.48944 560.85117,921.60428 601.77358,890.83697 652.5,881.20833 660.88406,879.61692 686.30884,879.5 1024,879.5 c 337.6912,0 363.1159,0.11692 371.5,1.70833 50.7264,9.62864 91.6488,40.39595 113.4291,85.28111 34.2939,70.67346 11.0346,147.91656 -54.4291,180.75716 -17.3756,8.7167 -34.798,12.7534 -55.043,12.7534 -29.715,0 -53.9898,-10.2579 -74.1601,-31.3381 -12.3867,-12.9453 -19.8571,-25.8233 -24.4578,-42.1619 -1.239,-4.4 -2.3864,-8.1893 -2.5498,-8.4206 -0.1635,-0.2313 -1.3141,0.5347 -2.5569,1.7023 -5.466,5.135 -15.7506,6.7241 -22.5813,3.4891 -5.3647,-2.5408 -11.6093,-9.2546 -15.1719,-16.3119 -1.7229,-3.4131 -3.4508,-5.8126 -3.8398,-5.3322 -0.3891,0.4803 -2.4161,3.4342 -4.5045,6.5643 -4.3578,6.5312 -12.024,12.7559 -18.8324,15.2913 -6.4309,2.3948 -16.6347,1.7729 -23.1833,-1.4129 -6.7033,-3.2611 -14.5331,-11.3922 -18.666,-19.3842 -1.8993,-3.6728 -3.7039,-6.6795 -4.0103,-6.6815 -0.3065,-0 -2.6866,2.8964 -5.2891,6.4409 -7.338,9.9938 -20.4945,18.8965 -31.7656,21.4949 -6.4379,1.4841 -18.6386,1.2765 -25.185,-0.4286 -13.2963,-3.4632 -27.0104,-13.7266 -34.4523,-25.7834 l -3.7041,-6.0011 -1.9912,2.8868 c -1.0952,1.5877 -5.6057,6.4891 -10.0234,10.8919 -5.9729,5.9527 -9.9551,8.9404 -15.5322,11.6534 -12.7437,6.1993 -17.8408,7.3318 -33,7.3318 -15.1592,0 -20.2563,-1.1325 -33,-7.3318 -5.57715,-2.713 -9.55929,-5.7007 -15.53216,-11.6534 -4.41769,-4.4028 -8.92823,-9.3042 -10.02342,-10.8919 l -1.99125,-2.8868 -3.70412,6.0011 c -4.75621,7.7057 -15.19504,17.4592 -22.78819,21.2923 -24.09625,12.1637 -52.58745,5.2527 -68.6757,-16.6584 -2.56899,-3.4988 -4.92161,-6.3597 -5.22803,-6.3577 -0.30642,0 -2.11107,3.0087 -4.01034,6.6815 -4.13285,7.992 -11.96267,16.1231 -18.66602,19.3842 -6.54857,3.1858 -16.75241,3.8077 -23.18326,1.4129 -6.80841,-2.5354 -14.47461,-8.7601 -18.8324,-15.2913 -2.08843,-3.1301 -4.11544,-6.084 -4.50447,-6.5643 -0.38903,-0.4804 -2.11697,1.9191 -3.83988,5.3322 -3.56251,7.0573 -9.80713,13.7711 -15.17189,16.3119 -6.83066,3.235 -17.11526,1.6459 -22.58128,-3.4891 -1.24284,-1.1676 -2.39342,-1.9336 -2.55684,-1.7023 -0.16343,0.2313 -1.31085,4.0206 -2.54984,8.4206 -4.60074,16.3386 -12.07114,29.2166 -24.45777,42.1619 -15.10066,15.7818 -33.52749,25.8933 -54.54111,29.9289 -9.20194,1.7672 -31.11249,1.6914 -41.2403,-0.1426 z m 39.87043,-15.0156 c 26.65838,-5.4208 49.66826,-23.7583 61.16059,-48.7411 6.36866,-13.8447 7.52484,-19.32 7.53673,-35.6915 0.0115,-15.9025 -0.78392,-19.5238 -7.0394,-32.0464 -13.2054,-26.4354 -44.85183,-41.89497 -72.45008,-35.39258 -26.71352,6.29393 -45.77544,35.02448 -39.96121,60.23038 4.45359,19.3073 23.90134,33.8363 42.69508,31.8966 20.59813,-2.1259 34.25354,-24.2801 25.63104,-41.5832 -6.37418,-12.7914 -23.37148,-16.9444 -32.39951,-7.9164 -1.7268,1.7268 -3.55044,4.2202 -4.05252,5.5407 -1.36593,3.5927 -1.10184,10.0048 0.54307,13.1857 1.61461,3.1223 6.94382,6.0852 10.94518,6.0852 6.32609,0 9.06076,8.9183 3.96401,12.9274 -3.18268,2.5035 -6.47634,2.6084 -13.24624,0.422 -20.43414,-6.5995 -25.08588,-34.0639 -8.378,-49.4647 17.33866,-15.9822 46.4071,-8.8605 57.12393,13.9953 2.34899,5.0097 2.63517,6.8204 2.63517,16.6732 0,10.8017 -0.0873,11.2298 -3.83676,18.815 -8.87748,17.9593 -25.83051,27.744 -45.66324,26.3552 -28.82678,-2.0185 -51.91621,-26.6182 -51.98522,-55.3854 -0.0634,-26.4171 15.21254,-50.47127 39.32423,-61.92186 14.5274,-6.89903 -16.67377,-6.38141 384.66099,-6.38141 401.3348,0 370.1336,-0.51762 384.661,6.38141 24.1117,11.45059 39.3876,35.50476 39.3242,61.92186 -0.069,28.7672 -23.1584,53.3669 -51.9852,55.3854 -19.8327,1.3888 -36.7858,-8.3959 -45.6632,-26.3552 -3.7495,-7.5852 -3.8368,-8.0133 -3.8368,-18.815 0,-9.8528 0.2862,-11.6635 2.6352,-16.6732 10.7168,-22.8558 39.7852,-29.9775 57.1239,-13.9953 16.7079,15.4008 12.0561,42.8652 -8.378,49.4647 -6.7699,2.1864 -10.0636,2.0815 -13.2462,-0.422 -5.0968,-4.0091 -2.3621,-12.9274 3.964,-12.9274 4.0013,0 9.3305,-2.9629 10.9452,-6.0852 1.6449,-3.1809 1.9089,-9.593 0.543,-13.1857 -2.8474,-7.4893 -11.91,-11.7584 -20.7578,-9.7783 -23.8048,5.3273 -24.4044,39.0588 -0.8987,50.559 20.6712,10.1135 47.9489,-4.5206 53.5306,-28.7184 4.6671,-20.2329 -7.1317,-44.3731 -26.9612,-55.1623 -20.5242,-11.16716 -47.1309,-7.71243 -68.2192,8.8579 -9.7709,7.6776 -17.4764,19.2105 -22.3909,33.513 -2.6759,7.7873 -2.6853,31.6357 -0.016,41 2.8165,9.8815 10.9271,25.7388 16.8653,32.974 11.0301,13.4394 28.902,25.1031 45.261,29.5388 8.2173,2.2281 28.595,3.0572 38.261,1.5567 44.3834,-6.8897 80.1563,-38.9062 91.1645,-81.5916 7.6024,-29.4786 2.5846,-65.55316 -13.1414,-94.4779 -20.0866,-36.94525 -53.6785,-61.84965 -96.0957,-71.24362 L 1386.5,894.5 H 1024 661.5 l -10.18841,2.25638 c -42.41722,9.39397 -76.0091,34.29837 -96.0957,71.24362 -15.72596,28.92474 -20.74376,64.9993 -13.14143,94.4779 10.67117,41.3784 44.79115,72.9874 87.42554,80.9915 9.92336,1.8631 28.03731,1.8452 37.29216,-0.037 z M 771.74645,1066.75 c 6.88284,-7.1267 11.52386,-21.9436 12.86951,-41.0871 0.7626,-10.8488 1.90176,-12.6629 7.95156,-12.6629 5.17507,0 6.79279,2.8351 7.60914,13.3352 1.31496,16.9133 5.92383,28.8858 14.37586,37.344 7.82176,7.8274 15.45416,8.4308 23.16441,1.8311 8.90792,-7.6248 14.70146,-21.4787 16.15098,-38.6212 0.74673,-8.831 1.17897,-10.5086 3.11045,-12.0727 2.49199,-2.0178 6.16591,-2.3447 9.04363,-0.8046 2.21178,1.1837 3.96453,6.7576 3.97243,12.6329 0.0199,14.7949 12.12342,32.8458 26.88443,40.0948 4.94571,2.4288 6.76849,2.7605 15.16955,2.7605 9.02469,0 9.96653,-0.2066 17.17162,-3.7659 14.91393,-7.3675 23.77826,-21.4525 25.73849,-40.8973 C 955.87922,1015.7037 957.71603,1013 963,1013 c 5.23203,0 7.12278,2.7242 8.01248,11.5442 1.31417,13.028 6.65402,23.4863 16.34665,32.0154 24.20987,21.3036 64.70647,16.46 81.86597,-9.7917 4.8746,-7.4574 6.8407,-13.0864 7.7624,-22.2237 0.8897,-8.82 2.7805,-11.5442 8.0125,-11.5442 5.284,0 7.1208,2.7037 8.0415,11.8368 1.9602,19.4448 10.8245,33.5298 25.7385,40.8973 7.2051,3.5593 8.1469,3.7659 17.1716,3.7659 8.5448,0 10.179,-0.3095 15.5484,-2.945 15.226,-7.4735 24.7658,-22.2286 26.5417,-41.0514 0.9372,-9.9336 2.573,-12.5036 7.9583,-12.5036 5.6676,0 7.1754,2.5752 8.1321,13.8891 1.4495,17.1425 7.2431,30.9964 16.151,38.6212 7.7102,6.5997 15.3426,5.9963 23.1644,-1.8311 8.452,-8.4582 13.0609,-20.4307 14.3758,-37.344 0.8164,-10.5001 2.4341,-13.3352 7.6092,-13.3352 6.0498,0 7.1889,1.8141 7.9515,12.6629 0.3774,5.3687 1.3724,13.1532 2.2112,17.2991 2.7775,13.7288 10.6367,27.038 15.9661,27.038 5.9461,0 12.0623,-10.2743 16.4749,-27.6753 5.0704,-19.995 12.6467,-33.2888 26.0375,-45.68662 L 1331.2435,990 H 1024 716.75653 l 7.16974,6.63808 c 13.39085,12.39782 20.96714,25.69162 26.03755,45.68662 4.41259,17.401 10.52882,27.6753 16.47487,27.6753 1.19294,0 3.58143,-1.4625 5.30776,-3.25 z" />
  </g>
</svg>
